<svg width="64" height="64" viewBox="0 0 64 64" fill="none" xmlns="http://www.w3.org/2000/svg">
  <rect width="64" height="64" rx="16" fill="#061826"/>
  <path d="M18 17H34C41.18 17 46 21.18 46 27.38C46 31.04 44.2 33.84 41.2 35.32C44.58 36.64 47 39.68 47 43.86C47 50.22 42.04 54 34.54 54H18V17ZM33.28 32.3C36.78 32.3 39.04 30.42 39.04 27.58C39.04 24.74 36.8 23.02 33.2 23.02H25V32.3H33.28ZM34 47.98C37.86 47.98 40.08 46.1 40.08 42.98C40.08 39.98 37.76 38.04 33.8 38.04H25V47.98H34Z" fill="#5EEAD4"/>
</svg>
